<?xml version="1.0" encoding="UTF-8" standalone="no"?>
<!-- Created with Inkscape (http://www.inkscape.org/) -->

<svg
   xmlns:osb="http://www.openswatchbook.org/uri/2009/osb"
   xmlns:dc="http://purl.org/dc/elements/1.1/"
   xmlns:cc="http://creativecommons.org/ns#"
   xmlns:rdf="http://www.w3.org/1999/02/22-rdf-syntax-ns#"
   xmlns:svg="http://www.w3.org/2000/svg"
   xmlns="http://www.w3.org/2000/svg"
   xmlns:xlink="http://www.w3.org/1999/xlink"
   xmlns:sodipodi="http://sodipodi.sourceforge.net/DTD/sodipodi-0.dtd"
   xmlns:inkscape="http://www.inkscape.org/namespaces/inkscape"
   width="32px"
   height="32px"
   id="svg2985"
   version="1.1"
   inkscape:version="0.48.2 r9819"
   sodipodi:docname="Wing.svg">
  <defs
     id="defs2987">
    <linearGradient
       inkscape:collect="always"
       id="linearGradient5404">
      <stop
         style="stop-color:#171817;stop-opacity:1"
         offset="0"
         id="stop5406" />
      <stop
         style="stop-color:#a40000;stop-opacity:1"
         offset="1"
         id="stop5408" />
    </linearGradient>
    <linearGradient
       inkscape:collect="always"
       id="linearGradient5355">
      <stop
         style="stop-color:#2f0000;stop-opacity:1;"
         offset="0"
         id="stop5357" />
      <stop
         style="stop-color:#2f0000;stop-opacity:0;"
         offset="1"
         id="stop5359" />
    </linearGradient>
    <linearGradient
       inkscape:collect="always"
       id="linearGradient5345">
      <stop
         style="stop-color:#170000;stop-opacity:1"
         offset="0"
         id="stop5347" />
      <stop
         style="stop-color:#a40000;stop-opacity:0;"
         offset="1"
         id="stop5349" />
    </linearGradient>
    <linearGradient
       id="linearGradient5327">
      <stop
         style="stop-color:#8a6c3e;stop-opacity:1;"
         offset="0"
         id="stop5329" />
      <stop
         style="stop-color:#8a6c3e;stop-opacity:0;"
         offset="1"
         id="stop5331" />
    </linearGradient>
    <linearGradient
       id="linearGradient5315"
       osb:paint="solid">
      <stop
         style="stop-color:#7f6a49;stop-opacity:1;"
         offset="0"
         id="stop5317" />
    </linearGradient>
    <linearGradient
       inkscape:collect="always"
       xlink:href="#linearGradient5345"
       id="linearGradient5353"
       x1="28.850977"
       y1="23.228214"
       x2="12.270049"
       y2="11.789481"
       gradientUnits="userSpaceOnUse"
       gradientTransform="matrix(1.0107024,0,0,1.0220465,-0.08337626,-0.07509154)" />
    <linearGradient
       inkscape:collect="always"
       xlink:href="#linearGradient5355"
       id="linearGradient5361"
       x1="19.729282"
       y1="24.828867"
       x2="5.7023387"
       y2="21.971163"
       gradientUnits="userSpaceOnUse" />
    <linearGradient
       inkscape:collect="always"
       xlink:href="#linearGradient5404"
       id="linearGradient5410"
       x1="27.166403"
       y1="26.067921"
       x2="13.414884"
       y2="24.255959"
       gradientUnits="userSpaceOnUse"
       gradientTransform="translate(0.11048543,0.09943689)" />
  </defs>
  <sodipodi:namedview
     id="base"
     pagecolor="#ffffff"
     bordercolor="#666666"
     borderopacity="1.0"
     inkscape:pageopacity="0.0"
     inkscape:pageshadow="2"
     inkscape:zoom="11.313709"
     inkscape:cx="18.586071"
     inkscape:cy="3.3195535"
     inkscape:current-layer="layer1"
     showgrid="true"
     inkscape:grid-bbox="true"
     inkscape:document-units="px"
     inkscape:window-width="1280"
     inkscape:window-height="969"
     inkscape:window-x="0"
     inkscape:window-y="26"
     inkscape:window-maximized="1" />
  <metadata
     id="metadata2990">
    <rdf:RDF>
      <cc:Work
         rdf:about="">
        <dc:format>image/svg+xml</dc:format>
        <dc:type
           rdf:resource="http://purl.org/dc/dcmitype/StillImage" />
        <dc:title />
      </cc:Work>
    </rdf:RDF>
  </metadata>
  <g
     id="layer1"
     inkscape:label="Layer 1"
     inkscape:groupmode="layer">
    <path
       style="fill:#cc0000;stroke:#2e3436;stroke-width:0.6;stroke-linecap:butt;stroke-linejoin:miter;stroke-opacity:1;fill-opacity:1;stroke-miterlimit:4;stroke-dasharray:none"
       d="M 4.6437685,25.034347 C 5.1895624,26.302093 7.4853166,26.57382 9.5554468,26.463199 15.380498,26.151928 28.39843,25.302257 28.39843,25.302257 L 24.111875,6.7271831 c 0,0 -6.047012,-3.7729635 -9.466144,-4.0186458 C 12.434784,2.5496693 9.2675151,2.7715532 8.2158981,4.4052988 7.0714502,11.066981 5.7702859,18.846758 4.6437685,25.034347 z"
       id="path3855"
       inkscape:connector-curvature="0"
       sodipodi:nodetypes="csccacc" />
    <path
       sodipodi:nodetypes="cccccccc"
       inkscape:connector-curvature="0"
       id="path5401"
       d="m 7.0067973,26.048531 c -1.0150057,-0.09344 -1.5265778,-0.48494 -1.8711904,-0.807836 0.3125,-0.794003 1.1231796,-1.409841 1.9574878,-1.783414 2.6196463,-1.173213 6.1730143,-0.543588 9.0816043,-0.230115 2.762668,0.377673 7.842362,1.259298 10.608921,1.878522 -2.082877,0.137855 -7.974867,0.618663 -13.886151,0.868148 -0.739696,0.06018 -4.1433366,0.257314 -4.7880382,0.222902 z"
       style="fill:url(#linearGradient5410);fill-opacity:1;fill-rule:nonzero;stroke:none" />
    <path
       style="fill:#e4e5e4;fill-opacity:0.3398693;fill-rule:nonzero;stroke:none"
       d="m 10.387944,22.78125 c -1.1617352,0.04465 -2.2988826,0.216295 -3.2812498,0.65625 -0.8343082,0.373573 -1.625,0.987247 -1.9375,1.78125 0.3446126,0.322896 0.8599943,0.71906 1.875,0.8125 l 1.09375,0.15625 c 0.6447016,0.03441 4.0415538,-0.15857 4.7812498,-0.21875 5.911284,-0.249485 11.792123,-0.737145 13.875,-0.875 -2.766559,-0.619224 -7.831082,-1.497327 -10.59375,-1.875 -1.817869,-0.195921 -3.876274,-0.511917 -5.8125,-0.4375 z m 0,0.34375 c 1.81369,-0.06091 3.765928,0.214646 5.46875,0.375 2.587829,0.309112 7.346026,1.024437 9.9375,1.53125 -1.951059,0.11283 -7.462819,0.514555 -13,0.71875 -0.692883,0.04926 -3.8960988,0.184415 -4.4999998,0.15625 l -1.03125,-0.09375 c -0.9507699,-0.07648 -1.4271966,-0.423222 -1.75,-0.6875 0.2927231,-0.649864 1.0622419,-1.131744 1.84375,-1.4375 0.9201971,-0.360088 1.9430362,-0.525955 3.0312498,-0.5625 z"
       id="path5397"
       inkscape:connector-curvature="0" />
    <path
       style="fill:none;stroke:#2e3436;stroke-width:0.7;stroke-linecap:butt;stroke-linejoin:miter;stroke-opacity:1;stroke-miterlimit:4;stroke-dasharray:none"
       d="m 4.7330717,25.212953 c 0,0 0.9265763,-3.131597 7.0549563,-2.7684 7.625068,0.451898 16.610402,2.679098 16.610402,2.679098"
       id="path3857"
       inkscape:connector-curvature="0"
       sodipodi:nodetypes="csc" />
    <path
       style="fill:url(#linearGradient5353);fill-opacity:1;fill-rule:nonzero;stroke:none"
       d="M 7.6008234,22.611134 C 9.099623,17.330372 14.547999,7.507651 15.487801,3.4060551 c 4.189125,1.0096398 8.311053,3.5488104 8.311053,3.5488104 0,0 2.405881,10.3661755 4.100979,17.6944365 C 19.454241,22.779748 12.81126,21.952666 7.6008234,22.611134 z"
       id="path3861"
       inkscape:connector-curvature="0"
       sodipodi:nodetypes="ccccc" />
    <path
       style="fill:#eeeeec;fill-opacity:0.3398693;stroke:none"
       d="M 13.000265,2.9909744 C 11.204786,3.027005 9.2497478,3.4346694 8.4858919,4.5375165 7.4685731,10.711437 6.2258089,17.779053 5.1865296,23.844196 5.341588,23.704083 5.4057568,23.641705 5.617542,23.511753 6.6001465,17.685887 7.7399064,10.504146 8.6999456,4.6778442 10.034724,3.1776375 12.886748,3.1900912 14.914093,3.3339755 17.326242,3.5051701 21.899815,6.136702 23.872779,7.3005059 23.846009,7.1261886 23.851836,7.1373306 23.811776,6.9529917 21.839069,5.7781562 18.048866,3.6590463 15.987222,3.2568114 14.857391,2.9059418 13.633445,2.9782681 13.000265,2.9909744 z"
       id="path5373"
       inkscape:connector-curvature="0"
       sodipodi:nodetypes="sccccscccs" />
  </g>
</svg>
