/* XPM */
static char * Wing_xpm[] = {
"32 32 19 1",
" 	c None",
".	c #393939",
"+	c #553939",
"@	c #AA3939",
"#	c #C61C1C",
"$	c #AA1C1C",
"%	c #8E3939",
"&	c #713939",
"*	c #C60000",
"=	c #551C39",
"-	c #AA0000",
";	c #551C1C",
">	c #711C1C",
",	c #8E0000",
"'	c #710000",
")	c #550000",
"!	c #8E1C1C",
"~	c #390000",
"{	c #71001C",
"                                ",
"                                ",
"           ..++.                ",
"         +@####$%&.             ",
"        &*********$&.           ",
"        $***********#&=         ",
"       .$*************$&        ",
"       +#*************--+       ",
"       +*************---;       ",
"       &************---->       ",
"       %************----,       ",
"       $***********-----,+      ",
"      .#**********-----,,;      ",
"      +#**********-----,,;      ",
"      &**********-----,,,'      ",
"      &*********-----,,,,'.     ",
"      %*********-----,,,'';     ",
"      $********-----,,,,'';     ",
"     +#*******-----,,,,''';     ",
"     +#******-----,,,,''')'     ",
"     &*******-----,,,''')))=    ",
"     &******-----,,,,''')));    ",
"     %*!;;;;>>>>>,,,''')))~;    ",
"     %;!$$--$$$!!>>;;;{')~~)    ",
"    .>--------,,,''';>>;;;;;.   ",
"    .!$----$$$$!!!!>>>;=+++..   ",
"      .+&+++...                 ",
"                                ",
"                                ",
"                                ",
"                                ",
"                                "};
